<svg width="256" height="256" viewBox="0 0 256 256" fill="none" xmlns="http://www.w3.org/2000/svg">
<circle cx="128" cy="128" r="128" fill="#0347FF"/>
<path d="M192.925 147.188L153.838 79.2326C142.127 58.9225 112.925 58.9225 101.214 79.2326L62.1273 147.188C50.4163 167.498 65.017 193 88.4389 193H108.363C93.3058 190.862 84.6367 173.912 92.5453 160.168L120.834 110.996C129.351 96.3359 150.492 96.3359 158.857 110.996L187.145 160.015C193.533 171.01 189.123 183.99 179.541 189.946C194.75 182.769 202.202 163.375 192.925 147.188Z" fill="white"/>
<path d="M139.975 133.111L124.611 159.86C120.002 167.854 125.84 178 135.059 178H165.941C175.16 178 180.998 168.008 176.389 159.86L160.871 133.111C156.262 124.963 144.585 124.963 139.975 133.111Z" fill="white"/>
</svg>
